<svg id="Layer_1" data-name="Layer 1" xmlns="http://www.w3.org/2000/svg" xmlns:xlink="http://www.w3.org/1999/xlink" viewBox="0 0 374.38 374.68"><defs><style>.cls-1{fill:none;}.cls-2{clip-path:url(#clip-path);}.cls-3{fill:#274149;}.cls-4{clip-path:url(#clip-path-2);}.cls-5{fill:#c2925b;}.cls-6{fill:#521c06;}</style><clipPath id="clip-path" transform="translate(-0.2 -0.07)"><rect class="cls-1" x="61.25" width="297.5" height="374.51"/></clipPath><clipPath id="clip-path-2" transform="translate(-0.2 -0.07)"><rect class="cls-1" width="375" height="375"/></clipPath></defs><g id="surface1"><g class="cls-2"><path class="cls-3" d="M310.82,68.43,257.06,12.17,235.49.08l53.65,79.57,44.82,159L296.7,373.4l17.59-26.67,42.24-107.58ZM180.55,272.92,178.94,267l-1.43-5A2.49,2.49,0,0,0,177,261c-1.46-1.82-3-3.63-4.45-5.38-.83-1-1.65-2-2.47-3l-3.47-4.14a29.24,29.24,0,0,0-4-4.14,1.76,1.76,0,0,0-1.07-.37,1.73,1.73,0,0,0-.87.24,2,2,0,0,0-.69,2.61,30,30,0,0,0,3.26,4.77l3.36,4.25c.79,1,1.59,2,2.37,3,1.31,1.67,2.66,3.38,4,5.06l1.26,4.49,1.73,5.91c.41,1.36.82,2.76,1.29,4.14a33.22,33.22,0,0,0,2.19,5l2.88-.93a35.24,35.24,0,0,0-.79-5.52C181.31,275.71,180.92,274.3,180.55,272.92ZM149.2,95.52c1.53.36,3.06.72,4.6,1l2.69.56,3,.54a19.16,19.16,0,0,0,3.46.41,8.61,8.61,0,0,0,2.29-.29l3.38-.86-2.85-2.13a13.48,13.48,0,0,0-5.41-2.12l-3-.67-2.67-.53c-1.52-.29-3.05-.56-4.57-.81l-3.48-.59a12.9,12.9,0,0,0-2-.21,6.33,6.33,0,0,0-1.31.14,1.83,1.83,0,0,0-1.16.85,2,2,0,0,0,.55,2.68,8.94,8.94,0,0,0,3.09,1.2Zm57.51,66.86c-.36-1.61-.7-3-1.07-4.37s-.79-2.86-1.21-4.29l-.61-2.1a6.62,6.62,0,0,0-1.29-2.68,1.85,1.85,0,0,0-.95-.58l-.21-.05h-.18a1.87,1.87,0,0,0-1.77,1.53,7,7,0,0,0,.14,3L200,155c.31,1.45.62,2.91,1,4.36s.69,2.75,1.14,4.36l.1.35a9.74,9.74,0,0,0,2.17,4.4l1.89,2,.69-2.75a10.11,10.11,0,0,0-.19-5ZM99,125.5a29.43,29.43,0,0,0-4.49.39c-1.57.25-3.12.62-4.62,1-.68.17-1.37.32-2.08.48-2.2.52-4.4,1-6.59,1.6s-4.44,1.13-6.64,1.72a3.2,3.2,0,0,0-2.08,1.83l-2.57,5.69-2.54,5.71-2.51,5.69a22.59,22.59,0,0,0-2.06,6.56,2.3,2.3,0,0,0,.55,1.79,2,2,0,0,0,2.89.07,21,21,0,0,0,3.69-5.64l2.81-5.55,2.8-5.57,2-4.12c1.71-.42,3.43-.86,5.13-1.3,2.19-.58,4.37-1.17,6.58-1.78l2-.58c1.48-.41,3-.84,4.54-1.37a25.51,25.51,0,0,0,6.59-3.36l3.42-2.48-4.08-.56A21.81,21.81,0,0,0,99,125.5Zm70.65,81.36a2.32,2.32,0,0,0,.46.06,2,2,0,0,0,1.22-.43,2.22,2.22,0,0,0,.8-1.44,2.33,2.33,0,0,0-.38-1.63,19,19,0,0,0-4.64-4.47l-4.66-3.5L157.75,192l-3.47-2.57c-.37-2.64-.75-5.27-1.15-7.92l-1.46-9.38c-.17-1-.32-2-.48-3-.34-2.12-.69-4.3-1.13-6.47a49.63,49.63,0,0,0-2.89-9.48l-2.28-5.27-.67,5.78a49.83,49.83,0,0,0,0,10c.19,2.2.48,4.39.76,6.51.13,1,.26,2,.39,3l1.29,9.41c.47,3.24.93,6.4,1.41,9.46a3.48,3.48,0,0,0,1.44,2.32l4.82,3.25,4.82,3.23,4.82,3.2A17.65,17.65,0,0,0,169.62,206.86Zm-65.39-56a73.55,73.55,0,0,1-4.86,11.77c-.41.82-.81,1.65-1.21,2.48l-6.08,12.62,3.35,20.2,3.41,21.31a4.3,4.3,0,0,1,0,.61c0,4.51-.12,9.32-.24,14.72l-.28,14.68c-.1,5.24-.21,10-.5,14.75-.35,5.49-.74,10.11-1.48,14.82l-3.07,0c-.62-4.73-.89-9.36-1.1-14.87-.18-4.75-.16-9.5-.13-14.75l.1-14.68c0-5.27.06-10,.13-14.39L89,199.1l-3.21-21.34a3.5,3.5,0,0,1,.33-2.13l6.91-13.44c.43-.82.84-1.62,1.26-2.44a70.11,70.11,0,0,1,6.4-10.9,2,2,0,0,1,1.57-.8,1.93,1.93,0,0,1,1.28.49,2.26,2.26,0,0,1,.65,2.32" transform="translate(-0.2 -0.07)"/></g><g class="cls-4"><path class="cls-5" d="M289.32,57.88a.53.53,0,0,1,.26-.68.46.46,0,0,1,.44,0A19.76,19.76,0,0,1,294,61l3.52,4.2q3.51,4.18,7,8.41a1.58,1.58,0,0,1,.31.62l0,.07c.76,2.82,1.49,5.63,2.19,8.46s1.39,5.66,2,8.5,1.3,5.69,1.91,8.54a33.55,33.55,0,0,1,.62,8.9,32,32,0,0,1-3.54-8.07c-.79-2.81-1.53-5.62-2.26-8.45s-1.44-5.63-2.13-8.47-1.28-5.44-1.89-8.16q-3.21-4.18-6.38-8.41l-3.31-4.38A20.83,20.83,0,0,1,289.32,57.88ZM238.89,2.59a.53.53,0,0,1,0-.72.48.48,0,0,1,.43-.16,21.13,21.13,0,0,1,5,1.76L249,5.84l9.42,4.79a1.53,1.53,0,0,1,.38.29l.05,0c2.2,2.35,4.41,4.69,6.58,7.06s4.34,4.76,6.46,7.17,4.26,4.83,6.37,7.28a36,36,0,0,1,5.39,8.29,33.88,33.88,0,0,1-7.58-6c-2.21-2.32-4.43-4.65-6.61-7S265.13,23,263,20.61s-4.16-4.7-6.22-7l-9-5.08-4.6-2.62A21.35,21.35,0,0,1,238.89,2.59Zm88.25,253.13,4.6-17-2.26-11.61c-.38-2-.79-4-1.08-6a49.84,49.84,0,0,1-.59-6.15.51.51,0,0,1,.46-.52.49.49,0,0,1,.44.31,49.69,49.69,0,0,1,1.92,5.83c.53,2,.95,3.95,1.4,5.94l2.66,11.94a1.42,1.42,0,0,1,0,.71v.06l-4.3,17.48c-1.43,5.83-2.93,11.63-4.44,17.44s-3.07,11.59-4.65,17.38a94.4,94.4,0,0,1-6,17,98.65,98.65,0,0,1,3-17.87c1.43-5.83,2.86-11.66,4.34-17.48S325.59,261.51,327.14,255.72Zm-6.2-129.32a6.89,6.89,0,0,1-.11-3.65.56.56,0,0,1,.69-.39.82.82,0,0,1,.2.12,6.49,6.49,0,0,1,1.72,3.14l1.07,3.35c.72,2.23,1.44,4.46,2.08,6.71s1.23,4.52,1.76,6.81A33.41,33.41,0,0,1,329,146a8.9,8.9,0,0,1-.43,3.81,8.23,8.23,0,0,1-2.25-3,28.33,28.33,0,0,1-1.15-3.32c-.7-2.24-1.34-4.49-1.91-6.77s-1.08-4.57-1.59-6.87Zm-20.23-14.64c.47,2.07.91,4.16,1.29,6.27s.74,4.22,1,6.37c-.94-1.92-1.75-3.88-2.52-5.87s-1.51-4-2.21-6c-1.39-4-2.59-8.08-3.79-12.15q-3.57-12-7-24.12-4.85-6.93-9.66-13.91L268,48.18l-9.75-14.24A127.5,127.5,0,0,1,249,19.26a.52.52,0,0,1,.19-.68.44.44,0,0,1,.55.08,124,124,0,0,1,10.58,13.56l10.06,14,10,14q5,7,9.95,14.07a1.66,1.66,0,0,1,.27.59c2.34,8.15,4.6,16.34,6.85,24.52C298.64,103.51,299.79,107.59,300.71,111.76Zm54.87,50.29c-2.8.86-5.62,1.59-8.37,2.61-1.38.52-2.76,1.06-4.11,1.68l-.2-8-2.55-3.1c8.52.57,17,1,25.61,1.08l2.71,2C364.3,159.52,359.93,160.75,355.58,162.05Zm-51.41-6.45-9.79,11.33.1.58-65.33,9.29,0-.39L196,143.05l3.18.28c19.15,1.72,38.28,3.5,57.43,5.15l28.71,2.46L314,153.25l2.42.2Zm-98.68,11.7a9,9,0,0,1-1.88-4.07c-.4-1.41-.78-2.83-1.12-4.27s-.64-2.88-1-4.33l-.46-2.17a5.15,5.15,0,0,1-.13-2.26.25.25,0,0,1,.31-.21.22.22,0,0,1,.14.09,5,5,0,0,1,.94,2l.62,2.12c.41,1.41.82,2.83,1.21,4.26s.72,2.85,1,4.29A9.27,9.27,0,0,1,205.49,167.3Zm-29.63,94.83a1,1,0,0,1,.18.33l1.41,5,1.36,5c.45,1.68.93,3.34,1.3,5a33.33,33.33,0,0,1,.76,5.22A30.65,30.65,0,0,1,178.8,278c-.58-1.64-1.05-3.29-1.53-5l-1.47-5-1.36-4.82c-2.23-2.75-4.4-5.56-6.6-8.34l-3.35-4.25a28.43,28.43,0,0,1-3.09-4.5.26.26,0,0,1,.08-.34.21.21,0,0,1,.26,0,26.48,26.48,0,0,1,3.73,3.9l3.47,4.14C171.24,256.58,173.58,259.32,175.86,262.13Zm-20.74-65.92L150.31,193a1.77,1.77,0,0,1-.74-1.2v0c-.49-3.13-.95-6.26-1.4-9.39l-1.28-9.38c-.39-3.15-.87-6.27-1.15-9.43a49.11,49.11,0,0,1,0-9.62,47.76,47.76,0,0,1,2.78,9.14c.64,3.1,1.07,6.23,1.61,9.35l1.44,9.37q.65,4.29,1.24,8.61l4,3,4.65,3.47,4.66,3.5a17.33,17.33,0,0,1,4.28,4.11.54.54,0,0,1-.1.73.47.47,0,0,1-.41.09,16.57,16.57,0,0,1-5.19-2.61l-4.84-3.2ZM143.49,91.74a.27.27,0,0,1,.15-.11,7.18,7.18,0,0,1,2.74.09l2.68.45c1.78.31,3.57.6,5.34.94l2.67.53,2.65.59a12.54,12.54,0,0,1,5.17,1.94,12.26,12.26,0,0,1-5.47-.23l-2.67-.47-2.66-.54c-1.78-.38-3.53-.8-5.3-1.21l-2.65-.62a7.23,7.23,0,0,1-2.59-1A.28.28,0,0,1,143.49,91.74Zm-40.75,58.63c-1.42,5-3.79,9.42-5.95,14l-6.32,13.12,3.43,20.75,3.4,21.31a1.63,1.63,0,0,1,0,.31v0q-.06,7.35-.23,14.68l-.28,14.67c-.1,4.9-.2,9.79-.5,14.67s-.69,9.78-1.47,14.66c-.64-4.9-.89-9.8-1.08-14.69s-.16-9.79-.13-14.68l.1-14.68q0-7.26.14-14.51l-3.3-21.15-3.22-21.34v0a1.65,1.65,0,0,1,.17-1L94.42,163c2.34-4.46,4.46-9.05,7.51-13.08a.46.46,0,0,1,.67-.08A.54.54,0,0,1,102.74,150.37Zm-26.2-14.71-2.38,4.8L71.37,146l-2.81,5.55a19.51,19.51,0,0,1-3.4,5.23.48.48,0,0,1-.7,0,.57.57,0,0,1-.12-.44,20.45,20.45,0,0,1,1.91-6l2.52-5.71,2.54-5.7,2.56-5.68a1.61,1.61,0,0,1,1.06-.94l.07,0q3.27-.88,6.54-1.69t6.57-1.6c2.2-.48,4.38-1.07,6.61-1.43a23.48,23.48,0,0,1,6.87-.19,24.34,24.34,0,0,1-6.22,3.16c-2.14.76-4.33,1.28-6.49,1.91s-4.35,1.2-6.54,1.77Q79.44,134.94,76.54,135.66ZM373.79,157.5c-2.55-1.79-5.13-3.53-7.71-5.27L358.36,147l-7.74-5.21a40.08,40.08,0,0,0-8.12-4.6.44.44,0,0,0-.48.11.55.55,0,0,0,0,.71,40.35,40.35,0,0,0,7.19,6.13l7.55,5.53,7.57,5.49.05,0c-8.91-1.37-17.85-2.38-26.78-3.28L336,150l-6.44,1.14c-5.1-.48-10.19-.92-15.29-1.37l-28.71-2.55-28.72-2.41c-19.15-1.59-38.31-3-57.47-4.57l-6.74-.54-12.71-12.79,24.93-54.84L221,36.57c2.66-5.92,5.33-11.85,7.9-17.83s5.16-11.94,7.62-18a.52.52,0,0,0-.2-.63.44.44,0,0,0-.63.19c-3,5.78-5.79,11.61-8.6,17.46s-5.59,11.72-8.33,17.61L202.41,70.77l-24.82,53.78-3.14-3.15-17-5.11,9.09-17.94L177.41,100l8.43-7-3.12-7-.93-5.71,1.56-2.68-1.56-5.37,5-1-4.06-13.74,2.82-9.39L182.2,31.84l-26.63-6.27L127.16,44.69l1.24,40.25-12.12,16.9L78.63,98.13,56.93,107l-43.63.48L.2,124.4l1,22.16,14.3,14.74,38.75-3.44.19,1.39,15,48.25,6.49,81,47.41,29,63.89-24.66L176,216.64,174.38,193l33.94,19.48,24.78,44.41,31.83,56.76c2.68,4.71,5.34,9.44,8.06,14.12l4.06,7,4.1,7c5.2,8.85,10.45,17.67,15.88,26.39l-1.2,4.51a1.62,1.62,0,0,0,.58,1.72,1.39,1.39,0,0,0,2-.39v0l18.41-28.81.15-.3h0l9.08-23.24c3-7.74,6-15.53,9-23.29l4.47-11.66,2.23-5.83,2.17-5.86c2.84-7.83,5.51-15.73,7.7-23.85-3.84,7.38-7.19,15-10.38,22.66l-2.35,5.76-2.3,5.81L332,297c-3,7.74-6.13,15.46-9.12,23.22L314,343.36l-13,20.91,3.48-13.77c1-3.85,2-7.7,2.84-11.57s1.71-7.77,2.34-11.73a.51.51,0,0,0-.28-.55.46.46,0,0,0-.61.29c-1.38,3.73-2.54,7.52-3.65,11.32S303,345.91,302,349.75L297.09,368c-4.56-9.21-9.3-18.31-14.08-27.37l-3.82-7.19-3.87-7.17c-2.56-4.79-5.18-9.54-7.79-14.29L236,255.05l-21.82-39.18,20.24,11.62.12,1,72.34-42.38,8.92,5.37L338.1,187a12.34,12.34,0,0,0,.39,4.68l1,4.73c.69,3.16,1.36,6.31,2.09,9.45s1.55,6.26,2.4,9.37c.46,1.54.82,3.12,1.41,4.62a14.48,14.48,0,0,0,2.51,4.31,15.18,15.18,0,0,0,.19-5.09c-.19-1.61-.61-3.17-.93-4.75-.69-3.15-1.43-6.29-2.25-9.41s-1.7-6.21-2.58-9.3L341,190.92a12.21,12.21,0,0,0-1.77-4.17l4.33-.87-.42-17.63c1.61-.16,3.19-.41,4.77-.71,2.86-.56,5.66-1.38,8.49-2.09,5.64-1.47,11.27-3,16.88-4.6h0a1.8,1.8,0,0,0,1-.78,2,2,0,0,0-.51-2.57" transform="translate(-0.2 -0.07)"/></g><path class="cls-6" d="M190.53,36.65l-40.59,2.68,2.19,20.45-7.49,3.36-7.5-5.37-4,10.06,8.42,10.74-13.74,4.69L111.54,62.47,112.17,38l8.43-6,3.75-11.4L157.13,6.46l34,7.72-.62,22.47" transform="translate(-0.2 -0.07)"/></g></svg>