<?xml version="1.0" encoding="UTF-8"?>
<svg xmlns="http://www.w3.org/2000/svg" xmlns:xlink="http://www.w3.org/1999/xlink" width="375pt" height="374.999991pt" viewBox="0 0 375 374.999991" version="1.2">
<g id="surface1">
<path style=" stroke:none;fill-rule:nonzero;fill:rgb(65.879822%,82.348633%,94.119263%);fill-opacity:1;" d="M 113.394531 103.867188 C 113.394531 103.867188 164.386719 84.820312 161.605469 140.277344 C 158.828125 195.734375 149.503906 257.640625 201.289062 271.726562 C 253.074219 285.8125 260.8125 308.136719 244.839844 314.683594 C 228.867188 321.230469 92.757812 317.359375 86.109375 281.648438 C 79.464844 245.933594 85.21875 122.917969 85.21875 122.917969 C 85.21875 122.917969 96.03125 102.976562 113.394531 103.867188 Z M 113.394531 103.867188 "/>
<path style=" stroke:none;fill-rule:nonzero;fill:rgb(16.468811%,31.369019%,50.19989%);fill-opacity:1;" d="M 173.710938 83.730469 C 173.710938 84.382812 173.648438 85.027344 173.519531 85.664062 C 173.394531 86.304688 173.203125 86.925781 172.957031 87.527344 C 172.707031 88.128906 172.398438 88.699219 172.039062 89.242188 C 171.675781 89.785156 171.265625 90.285156 170.804688 90.746094 C 170.34375 91.207031 169.84375 91.617188 169.300781 91.980469 C 168.757812 92.339844 168.1875 92.644531 167.585938 92.894531 C 166.984375 93.144531 166.363281 93.332031 165.726562 93.460938 C 165.085938 93.585938 164.441406 93.652344 163.789062 93.652344 C 163.136719 93.652344 162.492188 93.585938 161.855469 93.460938 C 161.214844 93.332031 160.59375 93.144531 159.992188 92.894531 C 159.390625 92.644531 158.820312 92.339844 158.277344 91.980469 C 157.738281 91.617188 157.234375 91.207031 156.773438 90.746094 C 156.3125 90.285156 155.902344 89.785156 155.539062 89.242188 C 155.179688 88.699219 154.875 88.128906 154.625 87.527344 C 154.375 86.925781 154.1875 86.304688 154.058594 85.664062 C 153.933594 85.027344 153.867188 84.382812 153.867188 83.730469 C 153.867188 83.078125 153.933594 82.433594 154.058594 81.792969 C 154.1875 81.15625 154.375 80.535156 154.625 79.933594 C 154.875 79.332031 155.179688 78.761719 155.539062 78.21875 C 155.902344 77.675781 156.3125 77.175781 156.773438 76.714844 C 157.234375 76.253906 157.738281 75.84375 158.277344 75.480469 C 158.820312 75.121094 159.390625 74.8125 159.992188 74.566406 C 160.59375 74.316406 161.214844 74.128906 161.855469 74 C 162.492188 73.875 163.136719 73.808594 163.789062 73.808594 C 164.441406 73.808594 165.085938 73.875 165.726562 74 C 166.363281 74.128906 166.984375 74.316406 167.585938 74.566406 C 168.1875 74.8125 168.757812 75.121094 169.300781 75.480469 C 169.84375 75.84375 170.34375 76.253906 170.804688 76.714844 C 171.265625 77.175781 171.675781 77.675781 172.039062 78.21875 C 172.398438 78.761719 172.707031 79.332031 172.957031 79.933594 C 173.203125 80.535156 173.394531 81.15625 173.519531 81.792969 C 173.648438 82.433594 173.710938 83.078125 173.710938 83.730469 Z M 173.710938 83.730469 "/>
<path style=" stroke:none;fill-rule:nonzero;fill:rgb(21.958923%,59.21936%,82.749939%);fill-opacity:1;" d="M 84.722656 123.3125 C 82.308594 128.363281 80.484375 133.617188 79.242188 139.074219 C 78.003906 144.53125 77.382812 150.058594 77.382812 155.65625 L 77.382812 230.65625 C 77.378906 231.175781 77.328125 231.691406 77.230469 232.203125 C 77.132812 232.714844 76.988281 233.210938 76.800781 233.695312 C 76.613281 234.179688 76.378906 234.644531 76.105469 235.085938 C 75.832031 235.53125 75.523438 235.945312 75.171875 236.332031 C 74.824219 236.714844 74.441406 237.066406 74.027344 237.382812 C 73.613281 237.699219 73.175781 237.972656 72.710938 238.210938 C 72.246094 238.445312 71.765625 238.636719 71.265625 238.785156 C 70.769531 238.933594 70.257812 239.03125 69.742188 239.085938 C 69.113281 239.1875 68.484375 239.1875 67.855469 239.085938 C 63.128906 238.382812 58.523438 237.195312 54.042969 235.523438 C 49.5625 233.851562 45.304688 231.734375 41.269531 229.167969 C 40.277344 228.675781 39.417969 228.015625 38.691406 227.183594 C 38.71875 226.984375 38.71875 226.785156 38.691406 226.585938 C 38.082031 225.335938 37.785156 224.011719 37.796875 222.617188 L 37.796875 192.855469 C 37.789062 189.15625 37.964844 185.464844 38.332031 181.78125 C 38.699219 178.101562 39.25 174.445312 39.988281 170.820312 C 40.726562 167.191406 41.644531 163.613281 42.746094 160.082031 C 43.847656 156.546875 45.128906 153.082031 46.582031 149.675781 C 48.035156 146.273438 49.660156 142.953125 51.453125 139.71875 C 53.246094 136.480469 55.195312 133.339844 57.308594 130.300781 C 59.421875 127.261719 61.679688 124.339844 64.089844 121.53125 C 66.5 118.722656 69.042969 116.042969 71.726562 113.492188 C 72.085938 113.183594 72.464844 112.90625 72.871094 112.664062 C 73.277344 112.421875 73.699219 112.214844 74.140625 112.042969 C 74.578125 111.871094 75.03125 111.738281 75.496094 111.644531 C 75.957031 111.550781 76.425781 111.496094 76.898438 111.480469 C 77.371094 111.464844 77.839844 111.488281 78.308594 111.554688 C 78.777344 111.621094 79.234375 111.722656 79.6875 111.867188 C 80.136719 112.011719 80.570312 112.191406 80.992188 112.40625 C 81.410156 112.625 81.808594 112.875 82.1875 113.160156 C 82.5625 113.445312 82.914062 113.761719 83.238281 114.105469 C 83.558594 114.449219 83.851562 114.816406 84.113281 115.210938 C 84.375 115.605469 84.597656 116.019531 84.789062 116.453125 C 84.980469 116.886719 85.132812 117.332031 85.246094 117.789062 C 85.359375 118.246094 85.4375 118.710938 85.472656 119.183594 C 85.507812 119.65625 85.503906 120.125 85.457031 120.597656 C 85.414062 121.066406 85.328125 121.53125 85.207031 121.984375 C 85.082031 122.441406 84.921875 122.882812 84.722656 123.3125 Z M 84.722656 123.3125 "/>
<path style="fill:none;stroke-width:2;stroke-linecap:round;stroke-linejoin:round;stroke:rgb(16.468811%,31.369019%,50.19989%);stroke-opacity:1;stroke-miterlimit:4;" d="M 42.00007 44.640165 L 42.00007 49.840028 L 37.799939 45.600127 C 37.647951 45.444596 37.482183 45.305602 37.302633 45.182752 C 37.123476 45.059509 36.933689 44.955165 36.734058 44.869721 C 36.534033 44.783884 36.327708 44.718127 36.115083 44.672846 C 35.902458 44.627565 35.68747 44.603152 35.47012 44.600002 L 28.390101 44.600002 C 28.269613 44.599609 28.149126 44.596459 28.029032 44.590159 C 27.908545 44.583859 27.788451 44.574802 27.668751 44.56299 C 27.549051 44.550784 27.429351 44.535821 27.310438 44.518102 C 27.191132 44.49999 27.072613 44.479515 26.954488 44.45589 C 26.836363 44.432265 26.719026 44.40549 26.602082 44.376352 C 26.485532 44.346821 26.369376 44.314534 26.254007 44.27949 C 26.139032 44.244446 26.024451 44.206646 25.911051 44.16609 C 25.797651 44.125534 25.685432 44.082221 25.574394 44.036152 C 25.462963 43.990084 25.352713 43.941259 25.244038 43.889677 C 25.134969 43.838096 25.027476 43.784152 24.921163 43.727452 C 24.814851 43.670752 24.710113 43.61169 24.606951 43.549871 C 24.503394 43.488052 24.401807 43.423477 24.301401 43.356933 C 24.200994 43.289996 24.102557 43.220696 24.005694 43.149427 C 23.908832 43.077765 23.813938 43.00374 23.720619 42.927746 C 23.627301 42.851358 23.535951 42.773002 23.446569 42.692283 C 23.357188 42.611565 23.269776 42.528877 23.184332 42.443827 C 23.098888 42.358777 23.015807 42.272152 22.934694 42.183165 C 22.853188 42.094177 22.774438 42.003221 22.697657 41.910296 C 22.620875 41.817371 22.546457 41.722871 22.4744 41.626402 C 22.402344 41.529933 22.33265 41.431496 22.265319 41.331877 C 22.197988 41.231865 22.133019 41.130277 22.070807 41.027508 C 22.008594 40.924346 21.948744 40.820002 21.891257 40.714083 C 21.834163 40.608165 21.779432 40.500671 21.727457 40.391996 C 21.675482 40.283321 21.625869 40.173858 21.579407 40.062821 C 21.53255 39.951783 21.48845 39.839565 21.4475 39.726558 C 21.406157 39.613158 21.367569 39.498971 21.332132 39.383996 C 21.2963 39.269021 21.263619 39.153258 21.233694 39.036708 C 21.203375 38.919764 21.176207 38.802821 21.152188 38.684696 C 21.127775 38.566571 21.106513 38.448052 21.088007 38.329139 C 21.0695 38.210227 21.05375 38.090921 21.04115 37.971221 C 21.028157 37.851127 21.018707 37.731427 21.011619 37.610939 C 21.004925 37.490846 21.000988 37.370358 20.999807 37.249871 L 20.999807 28.94017 C 21.000594 28.740539 21.009257 28.541301 21.025794 28.342458 C 21.042332 28.143614 21.067138 27.945558 21.099425 27.748683 C 21.132107 27.551808 21.172663 27.356507 21.221094 27.162782 C 21.269525 26.969451 21.325438 26.778089 21.389225 26.588695 C 21.453407 26.399695 21.524675 26.213451 21.603425 26.030357 C 21.682569 25.84687 21.768407 25.666926 21.862119 25.490526 C 21.955438 25.31452 22.055844 25.142057 22.162944 24.973926 C 22.270438 24.805401 22.384232 24.641995 22.505113 24.48292 C 22.6256 24.323845 22.752388 24.169889 22.885476 24.021051 C 23.018169 23.872214 23.157163 23.729282 23.301669 23.59147 C 23.446176 23.454051 23.596194 23.322538 23.751332 23.196932 C 23.906469 23.071326 24.066726 22.952413 24.231313 22.839801 C 24.396294 22.727582 24.565213 22.621663 24.738463 22.522832 C 24.912107 22.424001 25.088901 22.332257 25.269632 22.247601 C 25.450757 22.162945 25.634638 22.08577 25.821669 22.016076 C 26.008307 21.946382 26.198094 21.884563 26.389851 21.829832 L 26.839907 21.710132 " transform="matrix(9.920634,0,0,9.920634,-129.960309,-129.960313)"/>
<path style="fill:none;stroke-width:2;stroke-linecap:round;stroke-linejoin:round;stroke:rgb(16.079712%,31.759644%,51.368713%);stroke-opacity:1;stroke-miterlimit:4;" d="M 32.409895 21.549876 L 42.409964 21.549876 C 42.530845 21.55027 42.651727 21.55342 42.772214 21.55972 C 42.893095 21.56602 43.013583 21.575076 43.133677 21.587282 C 43.254164 21.599488 43.373864 21.614451 43.493171 21.632563 C 43.612871 21.650676 43.731783 21.671545 43.850302 21.69517 C 43.968821 21.719188 44.086552 21.745963 44.203889 21.775495 C 44.320833 21.805026 44.437383 21.837313 44.553146 21.872751 C 44.668514 21.907795 44.783096 21.945988 44.896889 21.986938 C 45.010683 22.027888 45.123296 22.071595 45.235121 22.117663 C 45.346552 22.164126 45.456802 22.213345 45.566264 22.26532 C 45.675333 22.316901 45.783221 22.371238 45.889533 22.428332 C 45.996239 22.485426 46.101371 22.545276 46.204927 22.607488 C 46.308483 22.669701 46.410464 22.734276 46.510871 22.801607 C 46.611277 22.868938 46.710108 22.938238 46.807364 23.010295 C 46.904227 23.082351 46.999515 23.15677 47.092833 23.233551 C 47.186152 23.310332 47.277502 23.389082 47.367277 23.470195 C 47.456658 23.551701 47.544071 23.634782 47.629515 23.720226 C 47.714958 23.80567 47.798433 23.893082 47.879546 23.982857 C 47.960658 24.072239 48.039802 24.163982 48.116583 24.257301 C 48.192971 24.35062 48.26739 24.445907 48.339446 24.54277 C 48.411502 24.640026 48.481196 24.738464 48.548527 24.83887 C 48.615465 24.93967 48.680433 25.041651 48.742646 25.145207 C 48.804858 25.248764 48.864315 25.353895 48.921408 25.460207 C 48.978502 25.566914 49.033233 25.674801 49.084815 25.78387 C 49.13679 25.892939 49.185615 26.003582 49.232077 26.115014 C 49.27854 26.226839 49.322246 26.339451 49.363196 26.452851 C 49.404146 26.566645 49.441946 26.68162 49.477383 26.796989 C 49.512427 26.912751 49.545108 27.028907 49.57464 27.146245 C 49.604171 27.263189 49.630946 27.381314 49.654571 27.499833 C 49.67859 27.617958 49.699458 27.737264 49.717571 27.85657 C 49.73529 27.97627 49.750646 28.09597 49.762458 28.216458 C 49.774665 28.336551 49.784115 28.457039 49.790021 28.577526 C 49.796321 28.698408 49.799865 28.819289 49.799865 28.94017 L 49.799865 37.260108 C 49.800258 37.551877 49.783721 37.842464 49.749858 38.132264 C 49.715602 38.422064 49.664808 38.708714 49.59669 38.992214 C 49.528965 39.276108 49.444308 39.554883 49.343508 39.82854 C 49.242708 40.102196 49.125765 40.369158 48.993465 40.629033 C 48.860771 40.888908 48.713508 41.139727 48.55089 41.382277 C 48.388665 41.624827 48.212658 41.856746 48.022871 42.078427 C 47.833083 42.299715 47.63109 42.509583 47.416496 42.707246 C 47.201902 42.904908 46.976283 43.089183 46.740033 43.260071 " transform="matrix(9.920634,0,0,9.920634,-129.960309,-129.960313)"/>
<path style="fill:none;stroke-width:2;stroke-linecap:round;stroke-linejoin:round;stroke:rgb(16.468811%,31.369019%,50.19989%);stroke-opacity:1;stroke-miterlimit:4;" d="M 14.230062 30.480126 L 14.230062 21.569957 C 14.232819 21.24787 14.256444 20.926963 14.300544 20.608026 C 14.344644 20.288695 14.409219 19.973695 14.494269 19.663026 C 14.579319 19.352357 14.683663 19.047988 14.808088 18.750707 C 14.932119 18.453426 15.07505 18.165594 15.236488 17.886819 C 15.397925 17.607651 15.576688 17.340688 15.772775 17.084751 C 15.968863 16.829207 16.180306 16.587051 16.4075 16.358676 C 16.635088 16.130301 16.876063 15.917282 17.130819 15.720013 C 17.385575 15.522744 17.652144 15.342801 17.930131 15.180182 C 20.270188 13.800088 23.070144 14.259988 25.649994 14.180057 L 35.650064 14.180057 C 35.770551 14.180844 35.890645 14.184782 36.011133 14.191869 C 36.131226 14.198563 36.25132 14.208407 36.37102 14.221007 C 36.49072 14.233607 36.610026 14.249357 36.729333 14.267863 C 36.848245 14.286369 36.966764 14.307632 37.084495 14.332044 C 37.20262 14.356457 37.319958 14.383625 37.436508 14.41355 C 37.553058 14.443475 37.669214 14.47655 37.784189 14.511988 C 37.899164 14.547819 38.013351 14.586013 38.126358 14.627357 C 38.239364 14.6687 38.351583 14.712407 38.46262 14.759263 C 38.573658 14.806119 38.683514 14.855338 38.792189 14.907313 C 38.900864 14.959288 39.007964 15.014019 39.113883 15.071507 C 39.219802 15.1286 39.324539 15.18845 39.427308 15.250663 C 39.53047 15.313269 39.632058 15.377844 39.731677 15.445176 C 39.831689 15.512507 39.929733 15.582201 40.026202 15.654651 C 40.12267 15.726707 40.217564 15.801126 40.310095 15.877513 C 40.40302 15.954294 40.493977 16.033438 40.582964 16.114551 C 40.671952 16.195663 40.75897 16.278744 40.84402 16.364188 C 40.928677 16.449632 41.011758 16.537044 41.092477 16.626426 C 41.172802 16.715807 41.251552 16.807157 41.327545 16.900476 C 41.403933 16.993794 41.477564 17.089082 41.549227 17.185944 C 41.620889 17.282807 41.690189 17.381244 41.756733 17.481257 C 41.82367 17.581663 41.887852 17.683644 41.94967 17.786807 C 42.011489 17.890363 42.070945 17.995101 42.127645 18.101413 C 42.184345 18.207332 42.238289 18.315219 42.28987 18.423894 C 42.341058 18.532963 42.389883 18.642819 42.435952 18.754251 C 42.48202 18.865682 42.525333 18.977901 42.565889 19.091301 C 42.606839 19.204701 42.644639 19.318888 42.679683 19.434257 C 42.714727 19.549232 42.74662 19.665388 42.776152 19.782332 C 42.805683 19.898882 42.832064 20.016613 42.855689 20.134345 C 42.879314 20.25247 42.900183 20.371382 42.917902 20.490295 C 42.936014 20.609601 42.950977 20.728907 42.962789 20.848607 C 42.974996 20.968701 42.984052 21.088795 42.990352 21.208888 C 42.996258 21.329376 42.999802 21.44947 43.000196 21.569957 " transform="matrix(9.920634,0,0,9.920634,-129.960309,-129.960313)"/>
<path style="fill:none;stroke-width:2;stroke-linecap:round;stroke-linejoin:round;stroke:rgb(16.468811%,31.369019%,50.19989%);stroke-opacity:1;stroke-miterlimit:4;" d="M 17.0501 36.000108 C 17.500944 36.329677 17.986438 36.596246 18.506975 36.799814 C 19.027119 37.002989 19.564982 37.136471 20.120169 37.199864 C 20.408394 37.240421 20.698588 37.260502 20.989963 37.260108 " transform="matrix(9.920634,0,0,9.920634,-129.960309,-129.960313)"/>
<path style="fill:none;stroke-width:2;stroke-linecap:round;stroke-linejoin:round;stroke:rgb(16.468811%,31.369019%,50.19989%);stroke-opacity:1;stroke-miterlimit:4;" d="M 28.900007 29.839889 L 41.390152 29.839889 " transform="matrix(9.920634,0,0,9.920634,-129.960309,-129.960313)"/>
<path style="fill:none;stroke-width:2;stroke-linecap:round;stroke-linejoin:round;stroke:rgb(16.468811%,31.369019%,50.19989%);stroke-opacity:1;stroke-miterlimit:4;" d="M 28.900007 36.789971 L 41.390152 36.789971 " transform="matrix(9.920634,0,0,9.920634,-129.960309,-129.960313)"/>
<path style="fill:none;stroke-width:2;stroke-linecap:round;stroke-linejoin:round;stroke:rgb(16.468811%,31.369019%,50.19989%);stroke-opacity:1;stroke-miterlimit:4;" d="M 17.0501 35.989871 L 17.030019 36.009952 L 14.230062 38.820146 L 14.230062 30.31987 " transform="matrix(9.920634,0,0,9.920634,-129.960309,-129.960313)"/>
</g>
</svg>
