<?xml version="1.0" encoding="UTF-8"?>
<svg xmlns="http://www.w3.org/2000/svg" xmlns:xlink="http://www.w3.org/1999/xlink" width="375pt" height="374.999991pt" viewBox="0 0 375 374.999991" version="1.2">
<defs>
<clipPath id="clip1">
  <path d="M 137 117.683594 L 256 117.683594 L 256 257 L 137 257 Z M 137 117.683594 "/>
</clipPath>
<clipPath id="clip2">
  <path d="M 112.5 117.683594 L 262.5 117.683594 L 262.5 257.183594 L 112.5 257.183594 Z M 112.5 117.683594 "/>
</clipPath>
</defs>
<g id="surface1">
<g clip-path="url(#clip1)" clip-rule="nonzero">
<path style=" stroke:none;fill-rule:nonzero;fill:rgb(15.289307%,25.489807%,28.62854%);fill-opacity:1;" d="M 236.828125 143.140625 L 215.324219 122.210938 L 206.695312 117.714844 L 228.15625 147.3125 L 246.085938 206.457031 L 231.179688 256.589844 L 238.214844 246.667969 L 255.113281 206.648438 Z M 184.71875 219.210938 L 184.074219 217 L 183.503906 215.136719 C 183.464844 215.007812 183.398438 214.886719 183.308594 214.785156 C 182.722656 214.109375 182.113281 213.4375 181.527344 212.785156 C 181.195312 212.421875 180.867188 212.054688 180.539062 211.6875 L 179.152344 210.148438 C 178.707031 209.652344 178.203125 209.085938 177.566406 208.609375 C 177.445312 208.519531 177.292969 208.46875 177.140625 208.46875 C 177.019531 208.46875 176.902344 208.5 176.792969 208.558594 C 176.449219 208.75 176.324219 209.183594 176.515625 209.53125 C 176.898438 210.222656 177.410156 210.824219 177.820312 211.304688 L 179.164062 212.886719 C 179.480469 213.261719 179.800781 213.636719 180.113281 214.011719 C 180.636719 214.632812 181.175781 215.269531 181.722656 215.894531 L 182.226562 217.566406 L 182.921875 219.765625 C 183.082031 220.269531 183.246094 220.789062 183.4375 221.304688 C 183.636719 221.828125 183.914062 222.515625 184.3125 223.179688 L 185.464844 222.832031 C 185.425781 222.058594 185.273438 221.332031 185.148438 220.78125 C 185.023438 220.246094 184.867188 219.722656 184.71875 219.210938 Z M 172.179688 153.21875 C 172.792969 153.351562 173.402344 153.484375 174.019531 153.605469 L 175.097656 153.8125 L 176.300781 154.011719 C 176.742188 154.085938 177.195312 154.164062 177.683594 154.164062 C 178.003906 154.164062 178.308594 154.132812 178.601562 154.058594 L 179.953125 153.738281 L 178.8125 152.945312 C 178.097656 152.453125 177.328125 152.296875 176.648438 152.15625 L 175.441406 151.90625 L 174.371094 151.710938 C 173.765625 151.601562 173.152344 151.503906 172.542969 151.410156 L 171.152344 151.191406 C 170.890625 151.152344 170.632812 151.113281 170.355469 151.113281 C 170.175781 151.113281 170.003906 151.128906 169.832031 151.164062 C 169.644531 151.199219 169.476562 151.316406 169.367188 151.480469 C 169.15625 151.816406 169.253906 152.261719 169.589844 152.476562 C 170.027344 152.75 170.488281 152.851562 170.824219 152.921875 Z M 195.183594 178.089844 C 195.039062 177.488281 194.902344 176.953125 194.757812 176.464844 C 194.605469 175.929688 194.441406 175.398438 194.273438 174.867188 L 194.027344 174.085938 C 193.929688 173.757812 193.808594 173.410156 193.511719 173.089844 C 193.410156 172.980469 193.277344 172.90625 193.132812 172.875 L 193.046875 172.855469 L 192.976562 172.855469 C 192.640625 172.855469 192.339844 173.097656 192.269531 173.425781 C 192.175781 173.851562 192.246094 174.214844 192.324219 174.539062 L 192.507812 175.347656 C 192.632812 175.886719 192.757812 176.429688 192.894531 176.96875 C 193.019531 177.464844 193.171875 177.992188 193.351562 178.589844 L 193.390625 178.722656 C 193.550781 179.246094 193.730469 179.839844 194.261719 180.359375 L 195.015625 181.101562 L 195.292969 180.078125 C 195.488281 179.363281 195.34375 178.761719 195.214844 178.226562 Z M 152.089844 164.371094 C 151.542969 164.371094 150.972656 164.417969 150.292969 164.515625 C 149.664062 164.609375 149.042969 164.746094 148.445312 164.875 C 148.171875 164.9375 147.894531 164.996094 147.613281 165.054688 C 146.730469 165.246094 145.851562 165.441406 144.976562 165.648438 C 144.082031 165.855469 143.199219 166.070312 142.320312 166.289062 C 141.953125 166.382812 141.652344 166.628906 141.488281 166.96875 L 140.460938 169.085938 L 139.445312 171.210938 L 138.441406 173.328125 C 138.109375 174.011719 137.742188 174.820312 137.617188 175.769531 C 137.585938 176.011719 137.667969 176.253906 137.835938 176.433594 C 137.988281 176.59375 138.207031 176.683594 138.425781 176.683594 C 138.636719 176.683594 138.835938 176.605469 138.992188 176.460938 C 139.679688 175.804688 140.117188 175.03125 140.46875 174.363281 L 141.59375 172.296875 L 142.710938 170.226562 L 143.53125 168.691406 C 144.214844 168.535156 144.902344 168.371094 145.585938 168.207031 C 146.460938 167.992188 147.332031 167.773438 148.214844 167.546875 C 148.484375 167.472656 148.757812 167.402344 149.03125 167.332031 C 149.625 167.179688 150.238281 167.019531 150.847656 166.820312 C 151.933594 166.457031 152.746094 166.070312 153.484375 165.570312 L 154.851562 164.648438 L 153.21875 164.441406 C 152.847656 164.394531 152.480469 164.371094 152.089844 164.371094 Z M 180.347656 194.636719 C 180.40625 194.648438 180.46875 194.65625 180.53125 194.65625 C 180.707031 194.65625 180.875 194.601562 181.019531 194.496094 C 181.195312 194.367188 181.308594 194.175781 181.339844 193.960938 C 181.371094 193.746094 181.316406 193.53125 181.1875 193.355469 C 180.636719 192.613281 179.9375 192.105469 179.332031 191.691406 L 177.46875 190.390625 L 175.601562 189.09375 L 174.210938 188.136719 C 174.0625 187.15625 173.910156 186.175781 173.75 185.191406 L 173.167969 181.699219 C 173.101562 181.332031 173.039062 180.96875 172.976562 180.601562 C 172.839844 179.8125 172.699219 179 172.523438 178.191406 C 172.191406 176.761719 171.835938 175.675781 171.367188 174.667969 L 170.457031 172.707031 L 170.1875 174.855469 C 170.050781 175.953125 170.046875 177.097656 170.175781 178.566406 C 170.25 179.382812 170.367188 180.199219 170.480469 180.988281 C 170.53125 181.355469 170.585938 181.726562 170.636719 182.105469 L 171.152344 185.605469 C 171.339844 186.8125 171.523438 187.988281 171.714844 189.125 C 171.777344 189.480469 171.988281 189.796875 172.292969 189.988281 L 174.21875 191.199219 L 176.148438 192.398438 L 178.074219 193.589844 C 178.699219 193.984375 179.441406 194.425781 180.347656 194.636719 Z M 154.191406 173.804688 C 153.710938 175.371094 152.964844 176.800781 152.246094 178.183594 C 152.085938 178.488281 151.925781 178.796875 151.765625 179.105469 L 149.332031 183.800781 L 150.671875 191.3125 L 152.035156 199.242188 C 152.046875 199.320312 152.054688 199.394531 152.054688 199.46875 C 152.039062 201.144531 152.007812 202.933594 151.960938 204.945312 L 151.847656 210.40625 C 151.808594 212.355469 151.765625 214.117188 151.648438 215.890625 C 151.507812 217.933594 151.351562 219.652344 151.054688 221.40625 L 149.828125 221.390625 C 149.578125 219.628906 149.472656 217.90625 149.386719 215.859375 C 149.316406 214.089844 149.324219 212.324219 149.335938 210.371094 L 149.375 204.910156 C 149.382812 202.949219 149.398438 201.199219 149.429688 199.558594 L 148.117188 191.75 L 146.832031 183.808594 C 146.785156 183.53125 146.835938 183.253906 146.964844 183.019531 L 149.726562 178.019531 C 149.898438 177.714844 150.0625 177.414062 150.230469 177.109375 C 150.980469 175.742188 151.753906 174.328125 152.792969 173.054688 C 152.945312 172.867188 153.175781 172.757812 153.421875 172.757812 C 153.605469 172.757812 153.789062 172.820312 153.933594 172.941406 C 154.1875 173.148438 154.289062 173.484375 154.191406 173.804688 "/>
</g>
<g clip-path="url(#clip2)" clip-rule="nonzero">
<path style=" stroke:none;fill-rule:nonzero;fill:rgb(76.078796%,57.249451%,35.688782%);fill-opacity:1;" d="M 228.226562 139.214844 C 228.183594 139.117188 228.230469 139.003906 228.332031 138.960938 C 228.390625 138.9375 228.457031 138.945312 228.507812 138.976562 C 229.132812 139.359375 229.636719 139.851562 230.113281 140.363281 L 231.519531 141.925781 C 232.457031 142.964844 233.390625 144.007812 234.320312 145.054688 C 234.378906 145.121094 234.421875 145.199219 234.445312 145.285156 L 234.453125 145.3125 C 234.757812 146.359375 235.046875 147.40625 235.328125 148.460938 C 235.605469 149.511719 235.882812 150.566406 236.140625 151.621094 C 236.402344 152.679688 236.660156 153.738281 236.902344 154.796875 C 237.117188 155.867188 237.253906 156.957031 237.152344 158.109375 C 236.492188 157.15625 236.078125 156.140625 235.734375 155.105469 C 235.421875 154.0625 235.125 153.015625 234.832031 151.964844 C 234.539062 150.917969 234.257812 149.867188 233.980469 148.8125 C 233.71875 147.804688 233.46875 146.789062 233.222656 145.777344 C 232.367188 144.738281 231.515625 143.695312 230.671875 142.648438 L 229.347656 141.019531 C 228.914062 140.46875 228.507812 139.894531 228.226562 139.214844 Z M 208.054688 118.648438 C 207.976562 118.578125 207.976562 118.457031 208.046875 118.378906 C 208.09375 118.332031 208.160156 118.3125 208.21875 118.320312 C 208.933594 118.445312 209.585938 118.695312 210.222656 118.972656 L 212.109375 119.855469 L 215.875 121.636719 C 215.933594 121.664062 215.984375 121.703125 216.027344 121.746094 L 216.046875 121.761719 C 216.929688 122.636719 217.8125 123.503906 218.679688 124.386719 C 219.550781 125.265625 220.414062 126.15625 221.265625 127.054688 C 222.125 127.945312 222.96875 128.851562 223.8125 129.761719 C 224.636719 130.6875 225.402344 131.671875 225.96875 132.847656 C 224.808594 132.25 223.84375 131.460938 222.9375 130.613281 C 222.050781 129.75 221.164062 128.882812 220.292969 128.003906 C 219.414062 127.128906 218.550781 126.242188 217.6875 125.351562 C 216.847656 124.484375 216.023438 123.601562 215.199219 122.726562 L 211.617188 120.839844 L 209.777344 119.863281 C 209.171875 119.519531 208.582031 119.148438 208.054688 118.648438 Z M 243.355469 212.8125 L 245.195312 206.488281 L 244.292969 202.167969 C 244.140625 201.425781 243.976562 200.679688 243.859375 199.929688 C 243.742188 199.175781 243.640625 198.417969 243.625 197.640625 C 243.621094 197.539062 243.707031 197.453125 243.808594 197.449219 C 243.886719 197.449219 243.953125 197.496094 243.984375 197.5625 C 244.300781 198.269531 244.53125 198.996094 244.75 199.730469 C 244.964844 200.460938 245.132812 201.203125 245.3125 201.941406 L 246.375 206.382812 C 246.398438 206.472656 246.398438 206.5625 246.375 206.648438 L 246.371094 206.667969 L 244.652344 213.171875 C 244.078125 215.339844 243.480469 217.5 242.875 219.660156 C 242.269531 221.816406 241.648438 223.972656 241.015625 226.125 C 240.390625 228.277344 239.675781 230.40625 238.613281 232.4375 C 238.75 230.148438 239.234375 227.957031 239.804688 225.789062 C 240.375 223.621094 240.949219 221.453125 241.539062 219.289062 C 242.132812 217.125 242.734375 214.964844 243.355469 212.8125 Z M 240.875 164.703125 C 240.769531 164.277344 240.679688 163.847656 240.832031 163.347656 C 240.871094 163.230469 240.992188 163.167969 241.109375 163.203125 C 241.136719 163.210938 241.164062 163.226562 241.1875 163.246094 C 241.585938 163.585938 241.738281 163.996094 241.875 164.414062 L 242.304688 165.660156 C 242.59375 166.488281 242.878906 167.320312 243.136719 168.15625 C 243.398438 168.996094 243.628906 169.839844 243.839844 170.691406 C 243.929688 171.121094 244.066406 171.539062 244.109375 171.984375 C 244.148438 172.425781 244.128906 172.890625 243.9375 173.402344 C 243.5 173.070312 243.238281 172.691406 243.035156 172.292969 C 242.832031 171.894531 242.722656 171.472656 242.574219 171.058594 C 242.296875 170.226562 242.039062 169.386719 241.8125 168.539062 C 241.582031 167.691406 241.378906 166.839844 241.175781 165.984375 Z M 232.785156 159.257812 C 232.972656 160.027344 233.148438 160.804688 233.300781 161.589844 C 233.457031 162.371094 233.597656 163.160156 233.691406 163.960938 C 233.316406 163.246094 232.992188 162.515625 232.683594 161.777344 C 232.367188 161.042969 232.078125 160.300781 231.800781 159.558594 C 231.242188 158.066406 230.765625 156.554688 230.285156 155.039062 C 229.332031 152.054688 228.390625 149.0625 227.46875 146.066406 C 226.175781 144.347656 224.886719 142.625 223.605469 140.894531 L 219.695312 135.605469 L 215.796875 130.308594 C 214.5 128.539062 213.164062 126.800781 212.117188 124.847656 C 212.066406 124.753906 212.101562 124.644531 212.191406 124.59375 C 212.265625 124.554688 212.355469 124.570312 212.410156 124.625 C 214 126.171875 215.304688 127.9375 216.644531 129.667969 L 220.667969 134.875 L 224.675781 140.089844 C 226.011719 141.828125 227.339844 143.574219 228.65625 145.324219 C 228.707031 145.390625 228.742188 145.464844 228.765625 145.542969 C 229.699219 148.574219 230.605469 151.621094 231.503906 154.664062 C 231.957031 156.1875 232.414062 157.707031 232.785156 159.257812 Z M 254.730469 177.964844 C 253.613281 178.285156 252.484375 178.558594 251.382812 178.9375 C 250.832031 179.128906 250.28125 179.332031 249.738281 179.5625 L 249.660156 176.59375 L 248.640625 175.441406 C 252.046875 175.652344 255.460938 175.804688 258.882812 175.84375 C 259.242188 176.085938 259.605469 176.328125 259.96875 176.570312 C 258.21875 177.023438 256.472656 177.484375 254.730469 177.964844 Z M 234.167969 175.566406 L 230.25 179.78125 L 230.292969 179.996094 L 204.160156 183.453125 L 204.144531 183.308594 L 190.886719 170.898438 L 192.160156 171.003906 C 199.820312 171.640625 207.472656 172.304688 215.132812 172.917969 L 226.617188 173.832031 L 238.109375 174.691406 C 238.429688 174.71875 238.753906 174.742188 239.074219 174.765625 Z M 194.695312 179.917969 C 194.238281 179.46875 194.105469 178.933594 193.945312 178.40625 C 193.785156 177.878906 193.632812 177.351562 193.496094 176.816406 C 193.363281 176.28125 193.238281 175.746094 193.113281 175.207031 L 192.929688 174.398438 C 192.863281 174.132812 192.808594 173.863281 192.875 173.558594 C 192.886719 173.503906 192.941406 173.464844 193 173.480469 C 193.023438 173.484375 193.039062 173.496094 193.054688 173.511719 C 193.265625 173.738281 193.351562 174 193.433594 174.265625 L 193.679688 175.054688 C 193.84375 175.578125 194.007812 176.105469 194.164062 176.636719 C 194.316406 177.164062 194.453125 177.699219 194.578125 178.234375 C 194.707031 178.773438 194.863281 179.300781 194.695312 179.917969 Z M 182.84375 215.195312 C 182.875 215.230469 182.898438 215.273438 182.914062 215.320312 L 183.480469 217.179688 L 184.023438 219.046875 C 184.203125 219.671875 184.394531 220.289062 184.542969 220.921875 C 184.6875 221.554688 184.8125 222.199219 184.847656 222.863281 C 184.503906 222.289062 184.25 221.691406 184.019531 221.082031 C 183.789062 220.472656 183.601562 219.855469 183.40625 219.234375 L 182.820312 217.378906 L 182.277344 215.585938 C 181.382812 214.5625 180.515625 213.519531 179.636719 212.484375 L 178.296875 210.902344 C 177.847656 210.375 177.402344 209.847656 177.058594 209.230469 C 177.03125 209.183594 177.050781 209.128906 177.09375 209.101562 C 177.128906 209.082031 177.167969 209.085938 177.195312 209.109375 C 177.761719 209.53125 178.226562 210.042969 178.6875 210.5625 L 180.074219 212.101562 C 180.996094 213.132812 181.933594 214.152344 182.84375 215.195312 Z M 174.546875 190.671875 L 172.625 189.464844 C 172.460938 189.363281 172.359375 189.195312 172.328125 189.019531 L 172.324219 189 C 172.128906 187.835938 171.945312 186.671875 171.765625 185.507812 L 171.25 182.015625 C 171.097656 180.84375 170.902344 179.683594 170.792969 178.507812 C 170.691406 177.332031 170.652344 176.144531 170.804688 174.929688 C 171.324219 176.042969 171.652344 177.183594 171.914062 178.332031 C 172.171875 179.484375 172.34375 180.648438 172.558594 181.808594 L 173.136719 185.292969 C 173.308594 186.359375 173.472656 187.425781 173.632812 188.496094 L 175.25 189.605469 L 177.113281 190.898438 L 178.976562 192.199219 C 179.601562 192.625 180.207031 193.078125 180.6875 193.726562 C 180.753906 193.8125 180.734375 193.933594 180.648438 194 C 180.601562 194.035156 180.539062 194.042969 180.484375 194.03125 C 179.703125 193.847656 179.046875 193.46875 178.40625 193.0625 L 176.472656 191.871094 Z M 169.894531 151.8125 C 169.910156 151.789062 169.933594 151.777344 169.957031 151.769531 C 170.339844 151.695312 170.695312 151.746094 171.050781 151.804688 L 172.125 151.972656 C 172.835938 152.085938 173.550781 152.195312 174.261719 152.320312 L 175.328125 152.519531 L 176.386719 152.738281 C 177.097656 152.882812 177.808594 153.007812 178.457031 153.457031 C 177.6875 153.640625 176.980469 153.496094 176.269531 153.375 L 175.199219 153.199219 L 174.136719 152.996094 C 173.425781 152.855469 172.722656 152.699219 172.015625 152.546875 L 170.957031 152.316406 C 170.601562 152.238281 170.253906 152.160156 169.921875 151.949219 C 169.878906 151.921875 169.863281 151.859375 169.894531 151.8125 Z M 153.597656 173.621094 C 153.027344 175.472656 152.078125 177.125 151.214844 178.820312 L 148.6875 183.703125 L 150.058594 191.421875 L 151.421875 199.347656 C 151.429688 199.386719 151.433594 199.425781 151.433594 199.464844 L 151.433594 199.472656 C 151.414062 201.292969 151.382812 203.113281 151.339844 204.933594 L 151.226562 210.390625 C 151.1875 212.210938 151.148438 214.03125 151.027344 215.847656 C 150.902344 217.667969 150.75 219.484375 150.441406 221.300781 C 150.183594 219.476562 150.082031 217.65625 150.007812 215.835938 C 149.9375 214.015625 149.945312 212.195312 149.957031 210.375 L 149.996094 204.914062 C 150 203.113281 150.019531 201.3125 150.050781 199.515625 L 148.730469 191.648438 L 147.445312 183.710938 L 147.441406 183.695312 C 147.421875 183.5625 147.445312 183.429688 147.507812 183.320312 L 150.269531 178.316406 C 151.203125 176.65625 152.050781 174.949219 153.273438 173.449219 C 153.339844 173.367188 153.457031 173.355469 153.539062 173.421875 C 153.597656 173.46875 153.621094 173.550781 153.597656 173.621094 Z M 143.117188 168.148438 L 142.164062 169.933594 L 141.046875 172.003906 L 139.925781 174.066406 C 139.558594 174.761719 139.164062 175.4375 138.5625 176.011719 C 138.484375 176.085938 138.359375 176.082031 138.285156 176.003906 C 138.242188 175.960938 138.226562 175.902344 138.234375 175.84375 C 138.34375 175.019531 138.65625 174.304688 139 173.597656 L 140.007812 171.476562 L 141.023438 169.355469 L 142.046875 167.242188 C 142.132812 167.058594 142.292969 166.9375 142.472656 166.890625 L 142.5 166.882812 C 143.371094 166.664062 144.242188 166.457031 145.117188 166.253906 C 145.992188 166.046875 146.867188 165.851562 147.742188 165.660156 C 148.625 165.480469 149.496094 165.261719 150.386719 165.128906 C 151.277344 165 152.1875 164.9375 153.136719 165.058594 C 152.34375 165.59375 151.503906 165.945312 150.648438 166.234375 C 149.792969 166.515625 148.917969 166.710938 148.050781 166.945312 C 147.179688 167.171875 146.3125 167.390625 145.4375 167.601562 C 144.664062 167.789062 143.890625 167.96875 143.117188 168.148438 Z M 262.015625 176.273438 C 260.996094 175.609375 259.964844 174.960938 258.933594 174.3125 L 255.84375 172.363281 L 252.746094 170.425781 C 251.714844 169.777344 250.683594 169.132812 249.5 168.714844 C 249.4375 168.691406 249.363281 168.703125 249.308594 168.753906 C 249.234375 168.824219 249.230469 168.945312 249.300781 169.019531 C 250.15625 169.933594 251.164062 170.621094 252.175781 171.300781 L 255.195312 173.355469 L 258.222656 175.398438 C 258.230469 175.402344 258.238281 175.40625 258.242188 175.410156 C 254.679688 174.902344 251.105469 174.523438 247.53125 174.191406 L 246.902344 173.484375 L 244.328125 173.90625 C 242.289062 173.730469 240.253906 173.566406 238.210938 173.398438 L 226.726562 172.449219 L 215.238281 171.554688 C 207.578125 170.960938 199.914062 170.421875 192.253906 169.851562 L 189.554688 169.652344 L 184.472656 164.894531 L 194.445312 144.492188 L 200.894531 131.289062 C 201.960938 129.085938 203.027344 126.878906 204.054688 124.65625 C 205.09375 122.4375 206.121094 120.214844 207.105469 117.96875 C 207.140625 117.882812 207.109375 117.78125 207.023438 117.734375 C 206.933594 117.683594 206.820312 117.71875 206.773438 117.804688 C 205.59375 119.957031 204.457031 122.125 203.332031 124.300781 C 202.195312 126.472656 201.097656 128.660156 200 130.851562 L 193.464844 144.011719 L 183.535156 164.015625 L 182.28125 162.84375 L 175.460938 160.945312 L 179.097656 154.269531 L 183.464844 154.894531 L 186.835938 152.273438 L 185.589844 149.65625 L 185.214844 147.53125 L 185.839844 146.535156 L 185.214844 144.539062 L 187.210938 144.164062 L 185.589844 139.050781 L 186.714844 135.558594 L 185.378906 129.527344 L 174.726562 127.195312 L 163.363281 134.308594 L 163.859375 149.28125 L 159.011719 155.566406 L 143.953125 154.1875 L 135.273438 157.503906 L 117.820312 157.679688 L 112.578125 163.960938 L 112.976562 172.203125 L 118.695312 177.6875 L 134.195312 176.40625 L 134.273438 176.925781 L 140.261719 194.875 L 142.855469 224.992188 L 161.820312 235.761719 L 187.375 226.585938 L 182.878906 198.273438 L 182.25 189.488281 L 195.828125 196.734375 L 205.738281 213.253906 L 218.472656 234.367188 C 219.542969 236.121094 220.609375 237.878906 221.695312 239.621094 L 223.320312 242.242188 L 224.960938 244.851562 C 227.039062 248.144531 229.140625 251.425781 231.3125 254.667969 L 230.832031 256.347656 C 230.765625 256.582031 230.851562 256.84375 231.0625 256.988281 C 231.328125 257.171875 231.691406 257.105469 231.875 256.839844 L 231.878906 256.832031 L 239.242188 246.113281 C 239.265625 246.078125 239.285156 246.039062 239.304688 246 L 239.304688 245.996094 L 242.9375 237.351562 C 244.152344 234.472656 245.332031 231.574219 246.523438 228.6875 L 248.3125 224.351562 L 249.203125 222.183594 L 250.070312 220.003906 C 251.207031 217.089844 252.277344 214.152344 253.152344 211.128906 C 251.617188 213.875 250.277344 216.703125 249 219.558594 L 248.058594 221.703125 L 247.140625 223.863281 L 245.308594 228.179688 C 244.089844 231.058594 242.855469 233.929688 241.660156 236.816406 L 238.082031 245.414062 L 232.898438 253.191406 L 234.292969 248.070312 C 234.679688 246.636719 235.078125 245.207031 235.429688 243.765625 C 235.78125 242.320312 236.113281 240.875 236.363281 239.402344 C 236.378906 239.316406 236.332031 239.230469 236.25 239.199219 C 236.152344 239.160156 236.046875 239.207031 236.007812 239.304688 C 235.457031 240.691406 234.992188 242.101562 234.546875 243.515625 C 234.097656 244.933594 233.699219 246.363281 233.289062 247.789062 L 231.335938 254.585938 C 229.511719 251.160156 227.617188 247.777344 225.703125 244.40625 L 224.175781 241.730469 L 222.628906 239.0625 C 221.605469 237.28125 220.554688 235.515625 219.511719 233.746094 L 206.898438 212.5625 L 198.171875 197.988281 L 206.269531 202.308594 L 206.316406 202.675781 L 235.25 186.910156 L 238.820312 188.90625 L 247.738281 187.238281 C 247.644531 187.855469 247.757812 188.417969 247.894531 188.976562 L 248.292969 190.738281 C 248.566406 191.914062 248.835938 193.085938 249.128906 194.253906 C 249.421875 195.421875 249.746094 196.582031 250.089844 197.738281 C 250.273438 198.3125 250.414062 198.898438 250.652344 199.457031 C 250.890625 200.015625 251.183594 200.558594 251.65625 201.058594 C 251.816406 200.390625 251.804688 199.773438 251.730469 199.167969 C 251.65625 198.566406 251.488281 197.988281 251.359375 197.398438 C 251.082031 196.226562 250.789062 195.058594 250.460938 193.898438 C 250.132812 192.742188 249.78125 191.589844 249.429688 190.4375 L 248.898438 188.707031 C 248.742188 188.167969 248.566406 187.636719 248.191406 187.15625 L 249.925781 186.832031 L 249.757812 180.273438 C 250.398438 180.214844 251.03125 180.121094 251.664062 180.007812 C 252.808594 179.800781 253.929688 179.496094 255.058594 179.230469 C 257.316406 178.683594 259.566406 178.117188 261.8125 177.519531 L 261.820312 177.519531 C 261.976562 177.476562 262.121094 177.378906 262.21875 177.230469 C 262.425781 176.910156 262.335938 176.480469 262.015625 176.273438 "/>
</g>
<path style=" stroke:none;fill-rule:nonzero;fill:rgb(32.159424%,10.978699%,2.349854%);fill-opacity:1;" d="M 188.710938 131.316406 L 172.476562 132.3125 L 173.351562 139.921875 L 170.355469 141.171875 L 167.355469 139.175781 L 165.734375 142.917969 L 169.105469 146.910156 L 163.609375 148.65625 L 157.117188 140.921875 L 157.367188 131.8125 L 160.738281 129.566406 L 162.238281 125.324219 L 175.351562 120.085938 L 188.960938 122.957031 L 188.710938 131.316406 "/>
</g>
</svg>
